<?xml version="1.0" encoding="utf-8"?>
<!-- Svg Vector Icons : http://www.onlinewebfonts.com/icon -->
<!DOCTYPE svg PUBLIC "-//W3C//DTD SVG 1.1//EN" "http://www.w3.org/Graphics/SVG/1.1/DTD/svg11.dtd">
<svg version="1.1" xmlns="http://www.w3.org/2000/svg" xmlns:xlink="http://www.w3.org/1999/xlink" x="0px" y="0px" viewBox="0 0 1000 1000" enable-background="new 0 0 1000 1000" xml:space="preserve">
<metadata> Svg Vector Icons : http://www.onlinewebfonts.com/icon </metadata>
<g><path d="M590.4,119.3c-40.6,0-116.1,54.4-116.1,54.4L242.1,336.8H68c-41.2,0.1-58,21.1-58,59.3v212.6c0,38.2,16.8,54.4,58,54.4h174.1l232.1,163.1c0,0,72.1,54.4,116.1,54.4c52.2,0,58-70.5,58-108.8V228.1C648.4,189.8,620.8,119.3,590.4,119.3z"/><path d="M872.2,190.8c-12.4-13.3-32.6-13.3-45.1-0.4c-12.6,13-12.8,34.2-0.5,47.4c1,1.1,99.6,109.1,99.6,262.2c0,153.1-98.6,261.1-99.7,262.3c-12.3,13.2-12.1,34.5,0.5,47.4c6.3,6.4,14.3,9.6,22.4,9.6c8.2,0,16.5-3.3,22.7-10C876.9,804.1,990,681.2,990,500C990,318.8,876.9,195.9,872.2,190.8z"/></g>
</svg>